<?xml version="1.0" encoding="UTF-8"?>
<svg id="_图层_2" data-name="图层 2" xmlns="http://www.w3.org/2000/svg" viewBox="0 0 377.78 430.49">
  <defs>
    <style>
      .cls-1 {
        fill: #969288;
        stroke-width: 0px;
      }
    </style>
  </defs>
  <g id="_图层_1-2" data-name="图层 1">
    <path class="cls-1" d="m159.68,287.14c27.42-5.81,53.96-7.58,79.62-5.31,6.58.58,11.75,3.45,15.49,8.58,3.74,5.14,5.4,10.01,5,14.61-.41,4.6-3.55,8.44-9.41,11.53-5.87,3.09-14.7,4.11-26.48,3.06l-19.72-2.26c-7.63-.68-17.19-.24-28.68,1.32-11.5,1.56-19.54,3.6-24.13,6.1-4.6,2.51-7.69,6.96-9.31,13.34-1.61,6.38-2.7,12.73-3.26,19.03s1.1,11.25,4.97,14.86c3.87,3.6,12.11,7.25,24.71,10.95,12.6,3.69,27.66,6.31,45.17,7.86,17.5,1.55,36.2,1.57,56.08.07,19.87-1.51,34.52-4.15,43.95-7.95,9.42-3.8,18.21-11.34,26.38-22.64,8.16-11.29,13.72-21.78,16.68-31.48,2.96-9.69,4.86-14.5,5.73-14.43.86.08,1.51,1.6,1.96,4.55.43,2.96,3.04,5.48,4.41,9.4.48,1.38,3.04,15.66,3.01,19.32-.17,23.62.02,37.25,3.19,40.97,2.21,2.59,3.09,6.53,2.62,11.82-.47,5.28-3.61,11.18-9.43,17.71-5.82,6.52-21.28,10.39-46.37,11.6s-47.52.94-67.28-.81-42.35-5.13-67.77-10.12c-25.42-5-41.86-8.78-49.32-11.32-7.46-2.55-13.76-7.4-18.89-14.55s-8.25-14.38-9.35-21.69c-1.69-12.51-2.05-24.21-1.08-35.12-23.82,8.54-45.81,18.09-65.96,28.67-5.5,2.94-10.33,4.23-14.49,3.87-4.16-.37-9.93-4.32-17.3-11.83-7.38-7.52-10.83-13.83-10.38-18.95.45-5.11,6.94-9.34,19.47-12.7,12.52-3.35,31.03-10.04,55.5-20.06,24.48-10.02,36.97-17.92,37.48-23.72.21-2.38-1.37-3.29-4.74-2.74-3.38.56-6.44.72-9.21.47-12.48-1.11-22.19-6.86-29.14-17.26s-10.2-17.98-9.78-22.75c.15-1.7,1.44-2.45,3.87-2.23l9.75,2.41c6.24.55,15.96-.73,29.17-3.85,13.2-3.12,25.48-7.61,36.84-13.48-1.68-8.73-9.57-14.24-23.7-16.52-11.02,2.11-21.73,2.71-32.13,1.79-3.12-.28-7.76-1.11-13.93-2.52-6.17-1.4-9.19-2.79-9.07-4.15.12-1.36,4.79-2.83,14.02-4.42,14.54-2.49,30.92-7.9,49.14-16.25-8.18-14.12-12.87-32.21-14.06-54.29-3.87,8.24-12.32,15.74-25.32,22.48-13.01,6.75-21.93,9.9-26.79,9.47-4.86-.43-8.7-6.35-11.53-17.76-2.84-11.41-3.99-20-3.48-25.8.51-5.79,3.91-9.7,10.21-11.71,6.29-2.02,16.19-9.21,29.69-21.58,13.5-12.36,20.58-22.29,21.25-29.79.27-3.07-.16-7.05-1.3-11.96-1.14-4.91-1.56-8.97-1.28-12.22.29-3.23,2.33-4.69,6.15-4.35,6.58.58,14.71,4.48,24.39,11.69,9.66,7.21,16.95,18.75,21.83,34.64,2.4,8.45,5.42,12.84,9.05,13.16,3.64.32,8.26-5.45,13.85-17.31,11.12-23.04,21.78-39.79,31.97-50.22C218.39,3.94,228.69-.81,239.09.11c10.4.92,20.88,4.86,31.45,11.8,10.56,6.95,15.5,14.34,14.81,22.17-.33,3.75-3.31,7.78-8.93,12.08-5.62,4.31-9.24,9.66-10.86,16.03,6.79-1.8,14.78-3.24,23.97-4.31,9.18-1.07,16.54-1.37,22.09-.88,5.54.49,11.82,4.57,18.84,12.23,7,7.66,10.36,13.28,10.04,16.85-.32,3.58-2.87,6.7-7.64,9.37-4.78,2.67-8.93,4.1-12.44,4.31-3.52.2-11.25-.22-23.21-1.28s-18.09.12-18.4,3.52c-.21,2.39,1.87,5.49,6.25,9.31s6.18,10.16,5.39,19.02c-.42,4.77-1.63,8.53-3.62,11.27-2,2.74-7.16,5.8-15.49,9.19-8.34,3.38-15.88,5.64-22.61,6.75,3.45,4.43,4.95,9.19,4.5,14.3-.45,5.11-3.02,9.44-7.7,12.97-4.69,3.54-10.14,5.02-16.38,4.47-26-2.3-44.45-1.18-55.33,3.34,3.74,5.14,6.27,10,7.62,14.58,3.18-.4,6.67-.44,10.49-.1,9.7.86,18.78,3.98,27.21,9.36,8.43,5.38,12.4,10.88,11.9,16.51-.5,5.62-3.25,10.01-8.24,13.18-5,3.16-17.02,7.68-36.06,13.54-13.99,4.23-23.02,13.39-27.06,27.45Zm65.59-148.7c9.08-4,15.5-8.41,19.25-13.23,3.74-4.82,5.72-8.33,5.91-10.55.2-2.21-1.36-3.47-4.65-3.76-3.3-.29-9.55,2.25-18.76,7.61-9.21,5.36-15.12,7.93-17.72,7.7s-5.95-2.93-10.03-8.1c-4.09-5.17-5.69-12.69-4.82-22.57.87-9.88,2-15.79,3.4-17.72,1.39-1.94,4.09-3.84,8.11-5.72,4.01-1.88,9.69-8.75,17.03-20.64,7.34-11.88,11.27-20.71,11.78-26.51.27-3.07-1.24-4.75-4.53-5.04-3.3-.29-8.85,2.31-16.68,7.79-7.83,5.49-20.36,30.78-22.1,33.67-1.77,4.46-8,17.81-11.11,24.67-2.83,4.78-10,17.9-18.83,37.99-8.68,19.74-12.79,32.01-13.19,36.43-.39,4.43-.1,7.03.88,7.8,26.24-16.22,42.86-26.33,49.86-30.35,6.99-4.02,11.7-5.92,14.13-5.7,2.46.23,6.47,2.3,12.07,6.23Z"/>
  </g>
</svg>